<svg width="18" height="18" viewBox="0 0 18 18" fill="none" xmlns="http://www.w3.org/2000/svg">
<path d="M9.67539 2.6999C9.67539 2.32711 9.37318 2.0249 9.00039 2.0249C8.6276 2.0249 8.32539 2.32711 8.32539 2.6999V4.4999C8.32539 4.87269 8.6276 5.1749 9.00039 5.1749C9.37318 5.1749 9.67539 4.87269 9.67539 4.4999V2.6999Z" fill="#0AB3E9"/>
<path d="M9.67539 13.4999C9.67539 13.1271 9.37318 12.8249 9.00039 12.8249C8.6276 12.8249 8.32539 13.1271 8.32539 13.4999V15.2999C8.32539 15.6727 8.6276 15.9749 9.00039 15.9749C9.37318 15.9749 9.67539 15.6727 9.67539 15.2999V13.4999Z" fill="#0AB3E9"/>
<path d="M13.9325 4.06783C14.1961 4.33144 14.1961 4.75882 13.9325 5.02243L12.6597 6.29522C12.3961 6.55882 11.9687 6.55882 11.7051 6.29522C11.4415 6.03162 11.4415 5.60423 11.7051 5.34063L12.9779 4.06783C13.2415 3.80423 13.6689 3.80423 13.9325 4.06783Z" fill="#0AB3E9"/>
<path d="M6.29572 12.6592C6.55932 12.3956 6.55932 11.9682 6.29572 11.7046C6.03211 11.441 5.60473 11.441 5.34112 11.7046L4.06833 12.9774C3.80473 13.241 3.80473 13.6684 4.06833 13.932C4.33193 14.1956 4.75932 14.1956 5.02293 13.932L6.29572 12.6592Z" fill="#0AB3E9"/>
<path d="M15.9754 8.99991C15.9754 9.3727 15.6732 9.67491 15.3004 9.67491H13.5004C13.1276 9.67491 12.8254 9.3727 12.8254 8.99991C12.8254 8.62712 13.1276 8.32491 13.5004 8.32491H15.3004C15.6732 8.32491 15.9754 8.62712 15.9754 8.99991Z" fill="#0AB3E9"/>
<path d="M4.50039 9.6749C4.87318 9.6749 5.17539 9.37269 5.17539 8.9999C5.17539 8.62711 4.87318 8.3249 4.50039 8.3249H2.70039C2.3276 8.3249 2.02539 8.62711 2.02539 8.9999C2.02539 9.37269 2.3276 9.6749 2.70039 9.6749H4.50039Z" fill="#0AB3E9"/>
<path d="M15.4072 15.4067C15.0997 15.7143 14.6011 15.7143 14.2935 15.4067L8.44354 9.55674C8.13601 9.2492 8.13601 8.75058 8.44354 8.44304C8.75108 8.1355 9.2497 8.1355 9.55724 8.44304L15.4072 14.293C15.7148 14.6006 15.7148 15.0992 15.4072 15.4067Z" fill="#0AB3E9"/>
<path d="M5.34112 6.29522C5.60473 6.55883 6.03211 6.55883 6.29572 6.29522C6.55932 6.03162 6.55932 5.60423 6.29572 5.34063L5.02293 4.06784C4.75932 3.80423 4.33193 3.80423 4.06833 4.06784C3.80473 4.33144 3.80473 4.75883 4.06833 5.02243L5.34112 6.29522Z" fill="#0AB3E9"/>
</svg>
